<?xml version="1.0" encoding="utf-8"?>
<!-- Generator: Adobe Illustrator 24.1.1, SVG Export Plug-In . SVG Version: 6.00 Build 0)  -->
<svg version="1.1" id="Layer_1" xmlns="http://www.w3.org/2000/svg" xmlns:xlink="http://www.w3.org/1999/xlink" x="0px" y="0px"
	 viewBox="0 0 800 123" style="enable-background:new 0 0 800 123;" xml:space="preserve">
<style type="text/css">
	.st0{fill:#FFFFFF;}
</style>
<g>
	<g>
		<path class="st0" d="M117.52,25.82c0.21-0.24,0.42-0.48,0.63-0.73c6.16-5.32,9.42-7.8,9.78-7.43c2.05-0.48,3.66-0.15,4.82,1.01
			l0.73,0.73c1.77,1.77,1.67,4.11-0.29,7.02c-4.21,3.04-6.74,4.99-7.59,5.84c-0.16,0.16-0.35,0.37-0.58,0.63
			c-0.95,1.1-2.51,3.13-4.68,6.08c-2.76,1.91-5.05,1.96-6.86,0.15l-0.44-0.44c-1.49-1.49-1.69-3.54-0.59-6.14
			C113.49,30.79,115.18,28.55,117.52,25.82z"/>
		<g>
			<path class="st0" d="M25.48,50.71h4.94c16.17,0,28.39,6.71,36.67,20.12c2.68,5.75,4.02,10.82,4.02,15.21
				c0,20.64-16.4,32.85-49.2,36.63c-10.68,0-17.54-4.32-20.58-12.95c0-0.66-0.14-1.26-0.42-1.8c0.28-3.04,0.42-5.42,0.42-7.13
				c0-4.62-0.45-13.72-1.34-27.28c0-10.68,4.92-17.83,14.75-21.46C18.53,51.16,22.11,50.71,25.48,50.71z M22.8,73.97
				c0.61,13.92,0.92,22.42,0.92,25.48l0.88,0.42c16.09-2.17,24.14-6.78,24.14-13.83c0-5.67-3.58-9.69-10.73-12.07
				c-2.17-0.89-5.15-1.34-8.93-1.34h-1.34C24.45,72.63,22.8,73.08,22.8,73.97z"/>
			<path class="st0" d="M113.31,47.11c11.22,0,19.42,5.67,24.6,17.01c0.59,1.3,1.03,3.54,1.34,6.71c0,9.99-6.71,17.14-20.12,21.46
				c-5.57,1.2-10.64,1.8-15.21,1.8h-4.48v0.42c0.84,3.88,3.97,5.82,9.39,5.82c1.43,0,6.35-1.19,14.75-3.56h0.46
				c6,0,9.58,3.72,10.73,11.15c0,8.41-8.2,13.32-24.6,14.75h-2.22c-11.65,0-20.74-5.06-27.28-15.17
				c-2.68-4.98-4.02-10.35-4.02-16.09c0-15.84,7.31-29.11,21.92-39.81C104.2,48.6,109.12,47.11,113.31,47.11z M112.39,74.85
				c4.47-1.07,6.71-2.5,6.71-4.29c0-0.61-0.26-1.28-0.77-1.99c-1.2-1.58-2.64-2.38-4.33-2.38c-1.25,0-2.64,0.44-4.18,1.3
				c-3.6,2.07-5.58,4.16-5.94,6.28c-0.03,0.13-0.04,0.26-0.04,0.38c0,1.02,0.93,1.53,2.8,1.53
				C108.05,75.69,109.96,75.41,112.39,74.85z"/>
			<path class="st0" d="M184.16,51.59c11.5,0,19.54,6.57,24.14,19.7c1.51,4.55,2.26,9.61,2.26,15.17
				c-1.02,16.43-2.82,25.37-5.4,26.82c-2.43,2.68-5.4,4.02-8.93,4.02c-7.15-1.76-10.73-5.34-10.73-10.73v-1.34
				c2.09-8.74,3.14-15,3.14-18.78V84.7c-0.69-7.15-2.03-10.73-4.02-10.73h-0.46c-4.73,0-9.04,6.11-12.95,18.32
				c-1.2,5.9-2.1,12.45-2.68,19.66c-2.48,5.67-6.05,8.51-10.73,8.51c-5.75,0-9.63-2.84-11.65-8.51c0-0.66-0.14-1.25-0.42-1.76
				c0.28-7.02,0.42-12.25,0.42-15.67c0-3.88-0.45-14.46-1.34-31.73v-0.46c1.38-6.56,4.66-9.85,9.85-9.85h2.68
				c3.19,0,5.88,2.1,8.05,6.28h0.88C172.68,53.98,178.64,51.59,184.16,51.59z"/>
			<path class="st0" d="M238.15,43.81c2.3-5.67,5.73-8.51,10.31-8.51h1.34c5.54,0,8.97,3.58,10.27,10.73
				c-0.74,4.8-1.29,8.72-1.65,11.76c0.84,0.08,1.7,0.17,2.57,0.27c13.13,1.2,19.7,5.36,19.7,12.49v1.38
				c-1.53,6.85-4.82,10.27-9.85,10.27h-2.22l-11.19-1.8h-0.46c-0.28,8.23-0.42,13.45-0.42,15.67c0,2.04,2.53,3.24,7.59,3.6
				c3.88,0.28,5.82,2.62,5.82,7.01c0,1.33-0.18,2.85-0.54,4.56c-1.2,5.75-5.47,8.62-12.8,8.62c-2.04,0-4.32-0.22-6.82-0.65
				c-5.06-0.87-8.9-3.12-11.53-6.76c-2.63-3.64-4.14-8.81-4.52-15.5c0-2.09,0.29-7.91,0.88-17.44c-0.31,0-0.46-0.15-0.46-0.46
				l-8.47,1.34c-7.77-1.3-11.65-5.03-11.65-11.19c0-2.43,0.74-4.96,2.22-7.59c2.96-3.58,9.37-5.36,19.24-5.36h0.61
				C236.68,51.13,237.36,46.98,238.15,43.81z"/>
			<path class="st0" d="M319.5,47.57c15.99,0,26.72,6.71,32.19,20.12c0.89,3.19,1.34,5.88,1.34,8.05v0.92
				c0,9.71-4.18,17.31-12.53,22.8c5.08,2.79,7.63,6.21,7.63,10.27v1.34c0,5.34-3.58,8.92-10.73,10.73
				c-6.62-1.07-13.92-4.5-21.92-10.27c-1.13-1.79-1.87-2.68-2.22-2.68h-0.46v0.42c0,7.23-3.73,11.56-11.19,12.99
				c-7.05,0-11.07-4.33-12.07-12.99c-3.58-12.39-5.36-21.47-5.36-27.25c0-15.99,7.46-26.73,22.38-32.23
				C312.02,48.31,316.33,47.57,319.5,47.57z M306.55,80.67c1.15,0.59,2.79,0.88,4.9,0.88h6.25c8.66,0,12.99-1.63,12.99-4.9v-0.46
				c0-4.16-3.44-6.25-10.31-6.25h-1.34c-6.79,0-10.82,2.68-12.07,8.05C306.69,78.43,306.55,79.32,306.55,80.67z"/>
			<path class="st0" d="M393.19,47.11c11.22,0,19.42,5.67,24.6,17.01c0.59,1.3,1.03,3.54,1.34,6.71c0,9.99-6.71,17.14-20.12,21.46
				c-5.57,1.2-10.64,1.8-15.21,1.8h-4.48v0.42c0.84,3.88,3.97,5.82,9.39,5.82c1.43,0,6.35-1.19,14.75-3.56h0.46
				c6,0,9.58,3.72,10.73,11.15c0,8.41-8.2,13.32-24.6,14.75h-2.22c-11.65,0-20.74-5.06-27.28-15.17
				c-2.68-4.98-4.02-10.35-4.02-16.09c0-15.84,7.31-29.11,21.92-39.81C384.08,48.6,389,47.11,393.19,47.11z M392.27,74.85
				c4.47-1.07,6.71-2.5,6.71-4.29c0-0.61-0.26-1.28-0.77-1.99c-1.2-1.58-2.64-2.38-4.33-2.38c-1.25,0-2.64,0.44-4.18,1.3
				c-3.6,2.07-5.58,4.16-5.94,6.28c-0.03,0.13-0.04,0.26-0.04,0.38c0,1.02,0.93,1.53,2.8,1.53
				C387.92,75.69,389.84,75.41,392.27,74.85z"/>
			<path class="st0" d="M464.04,51.59c11.5,0,19.54,6.57,24.14,19.7c1.51,4.55,2.26,9.61,2.26,15.17
				c-1.02,16.43-2.82,25.37-5.4,26.82c-2.43,2.68-5.4,4.02-8.93,4.02c-7.15-1.76-10.73-5.34-10.73-10.73v-1.34
				c2.09-8.74,3.14-15,3.14-18.78V84.7c-0.69-7.15-2.03-10.73-4.02-10.73h-0.46c-4.73,0-9.04,6.11-12.95,18.32
				c-1.2,5.9-2.1,12.45-2.68,19.66c-2.48,5.67-6.05,8.51-10.73,8.51c-5.75,0-9.63-2.84-11.65-8.51c0-0.66-0.14-1.25-0.42-1.76
				c0.28-7.02,0.42-12.25,0.42-15.67c0-3.88-0.45-14.46-1.34-31.73v-0.46c1.38-6.56,4.66-9.85,9.85-9.85h2.68
				c3.19,0,5.88,2.1,8.05,6.28h0.88C452.55,53.98,458.52,51.59,464.04,51.59z"/>
			<path class="st0" d="M526.11,48.03h5.36c9.83,0,17.74,3.14,23.72,9.43c1.2,2.25,1.8,4.48,1.8,6.71
				c-1.43,6.87-4.87,10.31-10.31,10.31h-1.34c-2.45,0-6.03-1.06-10.73-3.18c-2.56-0.61-5.12-1.01-7.7-1.19h-0.65
				c-2.38,0-4.8,0.9-7.28,2.68c18.8,0.18,29.98,6.39,33.53,18.62c0.28,0.38,0.42,1.42,0.42,3.1v2.26c0,8.46-5.95,15.9-17.86,22.34
				c-6.11,2.38-11.92,3.56-17.44,3.56h-4.02c-7.51,0-12.13-2.68-13.87-8.05l-0.88-3.56c0-5.47,3.27-9.49,9.81-12.07h4.02
				c2.89,0.59,4.53,0.88,4.94,0.88h1.76c2.4,0,5.24-0.74,8.51-2.22v-0.46c0-0.79-5.36-1.53-16.09-2.22
				c-11.93-3.53-17.9-10.68-17.9-21.46c0-11.29,7.6-19.34,22.8-24.14C521.6,48.47,524.73,48.03,526.11,48.03z"/>
			<path class="st0" d="M595.16,47.11c11.22,0,19.42,5.67,24.6,17.01c0.59,1.3,1.03,3.54,1.34,6.71c0,9.99-6.71,17.14-20.12,21.46
				c-5.57,1.2-10.64,1.8-15.21,1.8h-4.48v0.42c0.84,3.88,3.97,5.82,9.39,5.82c1.43,0,6.35-1.19,14.75-3.56h0.46
				c6,0,9.58,3.72,10.73,11.15c0,8.41-8.2,13.32-24.6,14.75h-2.22c-11.65,0-20.74-5.06-27.28-15.17
				c-2.68-4.98-4.02-10.35-4.02-16.09c0-15.84,7.31-29.11,21.92-39.81C586.06,48.6,590.97,47.11,595.16,47.11z M594.24,74.85
				c4.47-1.07,6.71-2.5,6.71-4.29c0-0.61-0.26-1.28-0.77-1.99c-1.2-1.58-2.64-2.38-4.33-2.38c-1.25,0-2.64,0.44-4.18,1.3
				c-3.6,2.07-5.58,4.16-5.94,6.28c-0.03,0.13-0.04,0.26-0.04,0.38c0,1.02,0.93,1.53,2.8,1.53
				C589.9,75.69,591.82,75.41,594.24,74.85z"/>
		</g>
	</g>
	<g>
		<g>
			<g>
				<path class="st0" d="M789.36,27.21c-1.17,0-2.24-0.78-2.55-1.96c-0.38-1.41,0.46-2.86,1.87-3.24l7.99-2.14
					c1.41-0.38,2.86,0.46,3.24,1.87c0.38,1.41-0.46,2.86-1.87,3.24l-7.99,2.14C789.82,27.18,789.59,27.21,789.36,27.21z"/>
			</g>
			<g>
				<path class="st0" d="M780.07,15.4c-0.45,0-0.9-0.11-1.32-0.35c-1.27-0.73-1.7-2.35-0.97-3.61l4.14-7.16
					c0.73-1.27,2.35-1.7,3.61-0.97c1.27,0.73,1.7,2.35,0.97,3.61l-4.14,7.16C781.88,14.92,780.99,15.4,780.07,15.4z"/>
			</g>
			<g>
				<path class="st0" d="M765.16,13.61c-1.17,0-2.24-0.78-2.55-1.96l-2.14-7.99c-0.38-1.41,0.46-2.86,1.87-3.24
					c1.41-0.38,2.86,0.46,3.24,1.87l2.14,7.99c0.38,1.41-0.46,2.86-1.87,3.24C765.61,13.58,765.38,13.61,765.16,13.61z"/>
			</g>
			<g>
				<path class="st0" d="M777.9,59.41c-1.17,0-2.24-0.78-2.55-1.96l-2.14-7.99c-0.38-1.41,0.46-2.86,1.87-3.24
					c1.41-0.38,2.86,0.46,3.24,1.87l2.14,7.99c0.38,1.41-0.46,2.86-1.87,3.24C778.36,59.38,778.13,59.41,777.9,59.41z"/>
			</g>
			<g>
				<path class="st0" d="M794.74,46.27c-0.45,0-0.9-0.11-1.32-0.35l-7.16-4.14c-1.27-0.73-1.7-2.35-0.97-3.61
					c0.73-1.27,2.35-1.7,3.61-0.97l7.16,4.14c1.27,0.73,1.7,2.35,0.97,3.61C796.54,45.79,795.65,46.27,794.74,46.27z"/>
			</g>
		</g>
		<g>
			<path class="st0" d="M722.21,94.47L746.37,88c10.03-2.69,6.01-18.09-4.12-15.37l-24.16,6.47
				C708.08,81.78,712.02,97.2,722.21,94.47L722.21,94.47z M747.71,93l-24.16,6.47c-17.03,4.56-23.19-20.98-6.8-25.38l24.16-6.47
				C757.85,63.09,764.13,88.6,747.71,93L747.71,93z"/>
			<path class="st0" d="M736.56,108.56c7.68-2.06,4.54-13.78-3.14-11.72l-15.69,4.2c-7.69,2.06-4.56,13.79,3.14,11.72L736.56,108.56
				L736.56,108.56z M722.21,117.76c-14.3,3.83-20.13-17.9-5.82-21.73l15.69-4.2c14.28-3.83,20.09,17.9,5.82,21.73L722.21,117.76
				L722.21,117.76z"/>
			<path class="st0" d="M717.34,52.1l1.34,5l53.91-14.46c16.67-4.47,9.88-29.82-6.79-25.36l-53.91,14.44l1.34,5l53.91-14.46
				c10.08-2.7,14.21,12.69,4.12,15.39L717.34,52.1L717.34,52.1z"/>
			<path class="st0" d="M722.8,72.48l1.34,5l22.92-6.15c11.92-3.19,12.83-19.56,2.31-24.69l-10.03,2.69l-0.66,2.42l2.91-0.79
				c10.08-2.7,14.21,12.69,4.12,15.39L722.8,72.48L722.8,72.48z"/>
			<path class="st0" d="M690.34,42.02c3.5,2.47,6.99,4.94,10.47,7.42c-1.52,7.98-5.57,19.74,2.03,25.2
				c1.71,1.27,4.14,2.38,6.33,1.93c1.56-0.33,2.86-1.65,3.35-4.29l3.66-19.9c1.04-5.68-0.42-9.96-3.18-13.42
				c-9.11-11.46-20.02-13.33-30.38-3.56c-7.5,7.08-13.47,16.47-16.53,26.34l-36.18,9.7l-1.34-5l33.47-8.97
				c2.79-7.89,9.36-18.58,17.04-25.83c12.63-11.92,26.85-9.85,37.96,4.1c3.64,4.57,5.58,10.18,4.22,17.56l-3.66,19.9
				c-0.93,5.07-3.81,7.68-7.37,8.42c-3.68,0.77-7.52-0.65-10.46-2.83c-9.72-7.19-6.52-17.26-4.64-27.09l-7.76-5.47L690.34,42.02
				L690.34,42.02z M643.63,122.67l-1.34-4.98l35.01-9.38c15.79,8.33,24.37,6.97,40.24,5.49l6.28,3.53l-1.61,0.43
				c-15.37,4.12-31.4,3.31-45.51-3.95L643.63,122.67L643.63,122.67z"/>
		</g>
	</g>
</g>
</svg>
