<?xml version="1.0" encoding="utf-8"?>
<!-- Generator: Adobe Illustrator 24.1.1, SVG Export Plug-In . SVG Version: 6.00 Build 0)  -->
<svg version="1.1" id="Layer_1" xmlns="http://www.w3.org/2000/svg" xmlns:xlink="http://www.w3.org/1999/xlink" x="0px" y="0px"
	 viewBox="0 0 200 143" style="enable-background:new 0 0 200 143;" xml:space="preserve">
<style type="text/css">
	.st0{fill:#FFFFFF;}
</style>
<g>
	<g>
		<g>
			<path class="st0" d="M187.59,31.5c-1.36,0-2.61-0.91-2.98-2.29c-0.44-1.65,0.54-3.34,2.18-3.78l9.32-2.5
				c1.65-0.44,3.34,0.54,3.78,2.18c0.44,1.65-0.54,3.34-2.18,3.78l-9.32,2.5C188.12,31.47,187.85,31.5,187.59,31.5z"/>
		</g>
		<g>
			<path class="st0" d="M176.76,17.72c-0.52,0-1.05-0.13-1.54-0.41c-1.48-0.85-1.98-2.74-1.13-4.22l4.83-8.36
				c0.85-1.48,2.74-1.98,4.22-1.13c1.48,0.85,1.98,2.74,1.13,4.22l-4.83,8.36C178.86,17.16,177.82,17.72,176.76,17.72z"/>
		</g>
		<g>
			<path class="st0" d="M159.35,15.63c-1.36,0-2.61-0.91-2.98-2.29l-2.5-9.32c-0.44-1.65,0.54-3.34,2.18-3.78
				c1.65-0.44,3.34,0.54,3.78,2.18l2.5,9.32c0.44,1.65-0.54,3.34-2.18,3.78C159.89,15.6,159.62,15.63,159.35,15.63z"/>
		</g>
		<g>
			<path class="st0" d="M174.22,69.06c-1.36,0-2.61-0.91-2.98-2.29l-2.5-9.32c-0.44-1.65,0.54-3.34,2.18-3.78
				c1.65-0.44,3.34,0.54,3.78,2.18l2.5,9.32c0.44,1.65-0.54,3.34-2.18,3.78C174.75,69.02,174.48,69.06,174.22,69.06z"/>
		</g>
		<g>
			<path class="st0" d="M193.86,53.73c-0.52,0-1.05-0.13-1.54-0.41l-8.36-4.83c-1.48-0.85-1.98-2.74-1.13-4.22
				c0.85-1.48,2.74-1.98,4.22-1.13l8.36,4.83c1.48,0.85,1.98,2.74,1.13,4.22C195.96,53.18,194.93,53.73,193.86,53.73z"/>
		</g>
	</g>
	<g>
		<path class="st0" d="M109.25,109.97l28.19-7.55c11.7-3.13,7.01-21.1-4.81-17.93l-28.19,7.55
			C92.77,95.16,97.37,113.15,109.25,109.97L109.25,109.97z M139,108.25l-28.19,7.55c-19.86,5.32-27.06-24.48-7.93-29.6l28.19-7.55
			C150.83,73.35,158.15,103.12,139,108.25L139,108.25z"/>
		<path class="st0" d="M125.99,126.39c8.96-2.4,5.3-16.08-3.66-13.68l-18.31,4.9c-8.97,2.4-5.31,16.08,3.66,13.68L125.99,126.39
			L125.99,126.39z M109.25,137.13c-16.68,4.47-23.48-20.88-6.79-25.35l18.31-4.9c16.65-4.46,23.44,20.89,6.79,25.35L109.25,137.13
			L109.25,137.13z"/>
		<path class="st0" d="M103.57,60.54l1.56,5.84l62.89-16.86c19.45-5.21,11.52-34.79-7.93-29.58L97.2,36.77l1.56,5.84l62.89-16.86
			c11.76-3.15,16.57,14.81,4.81,17.96L103.57,60.54L103.57,60.54z"/>
		<path class="st0" d="M109.94,84.31l1.56,5.83l26.74-7.18c13.9-3.73,14.97-22.82,2.7-28.8l-11.7,3.13l-0.77,2.82l3.4-0.92
			c11.76-3.15,16.57,14.81,4.81,17.96L109.94,84.31L109.94,84.31z"/>
		<path class="st0" d="M72.07,48.77c4.08,2.88,8.15,5.76,12.21,8.66c-1.78,9.31-6.5,23.03,2.37,29.4c2,1.48,4.83,2.78,7.38,2.25
			c1.82-0.38,3.33-1.92,3.9-5l4.27-23.21c1.22-6.62-0.49-11.62-3.71-15.65c-10.63-13.37-23.36-15.55-35.44-4.15
			c-8.75,8.26-15.72,19.21-19.29,30.73L1.56,83.1L0,77.26L39.05,66.8c3.26-9.21,10.91-21.67,19.88-30.14
			c14.73-13.9,31.33-11.5,44.28,4.79c4.24,5.33,6.51,11.87,4.93,20.48l-4.27,23.21c-1.09,5.91-4.44,8.96-8.6,9.83
			c-4.29,0.89-8.77-0.76-12.21-3.3c-11.34-8.39-7.6-20.14-5.42-31.61l-9.05-6.38L72.07,48.77L72.07,48.77z M17.58,142.86l-1.56-5.81
			l40.84-10.94c18.42,9.72,28.44,8.13,46.94,6.41l7.32,4.12l-1.88,0.5c-17.93,4.8-36.63,3.86-53.09-4.61L17.58,142.86L17.58,142.86z
			"/>
	</g>
</g>
</svg>
