<?xml version="1.0" encoding="utf-8"?>
<!-- Generator: Adobe Illustrator 24.1.1, SVG Export Plug-In . SVG Version: 6.00 Build 0)  -->
<svg version="1.1" id="Layer_1" xmlns="http://www.w3.org/2000/svg" xmlns:xlink="http://www.w3.org/1999/xlink" x="0px" y="0px"
	 viewBox="0 0 200 150" style="enable-background:new 0 0 200 150;" xml:space="preserve">
<style type="text/css">
	.st0{fill:#FFFFFF;}
</style>
<g>
	<g>
		<path class="st0" d="M199.79,32.85c-0.86-3.21-4.16-5.12-7.37-4.26l-11.55,3.1c-1.55,0.42-2.85,1.41-3.66,2.81
			c-0.8,1.39-1.02,3.02-0.6,4.57c0.7,2.63,3.09,4.46,5.81,4.46c0.53,0,1.05-0.07,1.56-0.21l11.55-3.1c1.55-0.42,2.85-1.41,3.66-2.81
			S200.21,34.4,199.79,32.85z"/>
		<path class="st0" d="M180.19,13.07c0.8-1.39,1.02-3.02,0.6-4.57c-0.42-1.55-1.41-2.85-2.81-3.66c-1.39-0.8-3.01-1.02-4.57-0.6
			c-1.55,0.42-2.85,1.41-3.66,2.81l-5.98,10.36c-1.66,2.88-0.67,6.57,2.2,8.23c0.91,0.53,1.95,0.81,3.01,0.81
			c2.15,0,4.15-1.15,5.22-3.01L180.19,13.07z"/>
		<path class="st0" d="M150.15,4.72c-0.42-1.55-1.41-2.85-2.8-3.66c-1.39-0.8-3.01-1.02-4.57-0.6c-1.55,0.42-2.85,1.41-3.66,2.81
			s-1.02,3.02-0.6,4.57l3.1,11.55c0.7,2.63,3.09,4.46,5.81,4.46c0.53,0,1.05-0.07,1.56-0.21c1.55-0.42,2.85-1.41,3.66-2.81
			c0.8-1.39,1.02-3.02,0.6-4.57L150.15,4.72z"/>
		<path class="st0" d="M168.57,70.94c-0.86-3.2-4.16-5.11-7.38-4.26c-3.21,0.86-5.12,4.17-4.26,7.37l3.1,11.55
			c0.7,2.63,3.09,4.46,5.81,4.46c0.52,0,1.05-0.07,1.56-0.21c1.55-0.42,2.85-1.41,3.66-2.81c0.8-1.39,1.02-3.02,0.6-4.57
			L168.57,70.94z"/>
		<path class="st0" d="M193.21,59.84l-10.36-5.98c-1.39-0.8-3.02-1.02-4.57-0.6c-1.55,0.42-2.85,1.41-3.66,2.81
			c-1.66,2.88-0.67,6.57,2.21,8.22l10.36,5.98c0.91,0.53,1.95,0.81,3.01,0.81c2.15,0,4.15-1.15,5.22-3.01
			C197.07,65.19,196.08,61.5,193.21,59.84z"/>
	</g>
	<path class="st0" d="M172.93,41.03c-2.14-7.97-9.74-14.58-20.15-11.79L96.08,44.42c-5.38-4.83-11.28-7.57-17.33-8
		c-7.6-0.54-15.24,2.6-22.11,9.09c-8.86,8.36-15.73,19.92-18.87,28.13L0,83.76l2.61,9.73l43.01-11.53l0.36-1.16
		c3.22-10.39,9.46-20.33,17.56-27.98c4.79-4.52,9.67-6.63,14.53-6.29c5.31,0.38,10.7,3.83,15.59,9.97c3.01,3.78,3.98,7.9,3.05,12.97
		l-4.02,21.84c-0.22,1.21-0.74,2.7-1.96,2.96c-1.64,0.34-3.76-0.67-5.22-1.75c-5.99-4.3-3.97-13.42-2.19-21.47
		c0.31-1.4,0.6-2.74,0.84-4l0.26-1.38l-1.15-0.82c-3.83-2.73-7.66-5.44-11.5-8.15l-1.79-1.26l-5.8,8.21l9.15,6.45
		c-0.11,0.54-0.22,1.08-0.33,1.62c-1.99,9.81-4.25,20.92,6.55,28.91c2.38,1.76,4.97,2.92,7.53,3.44c-0.49,2.65-0.37,5.42,0.33,8.03
		c0.74,2.77,2.16,5.43,4.18,7.57c-1.52,1.59-2.63,3.52-3.24,5.78c-0.95,3.53-0.54,7.35,1,10.63c-11.08,0.78-19.23,0.05-32.13-6.75
		l-0.76-0.4l-41.39,11.09l2.6,9.71l37.62-10.08c15.14,7.54,32.68,8.97,50.77,4.12l17.23-4.62c5.24-1.4,8.85-4.87,10.16-9.76
		c1.1-4.1,0.37-8.57-1.82-12.16l2.43-0.65c5.95-1.59,10.05-5.57,11.56-11.19c1.6-5.95-0.22-12.84-4.52-17.14
		c-0.01-0.01-0.02-0.01-0.02-0.02c2.44-2.58,4-5.98,4.37-9.84c0.43-4.43-0.8-8.65-3.27-11.94l19.2-5.15
		C171.79,58.53,175.07,49,172.93,41.03z M107.12,65.44c-0.07-4.53-1.31-8.69-3.73-12.55l51.99-13.94c4.26-1.14,7.03,1.52,7.88,4.67
		c0.45,1.68,0.31,3.44-0.37,4.83c-0.77,1.57-2.15,2.63-4.11,3.15L107.12,65.44z M125.43,70.96l2.09-0.56
		c1.9-0.47,3.58-0.24,4.99,0.71c1.29,0.87,2.29,2.32,2.73,4c0.84,3.15-0.21,6.84-4.48,7.98l-4.97,1.33
		c-0.11,0.03-0.22,0.05-0.32,0.08l-19.82,5.31l-2.18,0.58v0l-0.39,0.1l2.62-14.25l14.78-3.96l-0.01,0.02L125.43,70.96z
		 M104.93,113.97c-4.28,1.14-7.04-1.49-7.87-4.6c-0.85-3.17,0.21-6.89,4.48-8.03l4.53-1.21v0l2.45-0.66l19.56-5.24
		c0.72-0.19,1.38-0.28,1.98-0.28c1.92,0,3.23,0.85,4.06,1.67c1.76,1.76,2.51,4.57,1.86,6.99c-0.4,1.49-1.51,3.44-4.51,4.25
		L104.93,113.97z M103.46,134.05c-3.12,0.83-4.84-1.19-5.37-3.18c-0.53-1.99-0.05-4.61,3.06-5.45l17.23-4.62
		c0.49-0.13,0.94-0.19,1.35-0.19c1.3,0,2.19,0.57,2.75,1.13c1.2,1.2,1.73,3.18,1.29,4.82c-0.27,1-1.02,2.31-3.08,2.86L103.46,134.05
		z"/>
</g>
</svg>
